<svg width="154" height="36" viewBox="0 0 154 36" fill="none" xmlns="http://www.w3.org/2000/svg">
<path d="M0.12 32.736H3.144V3.264H0.12V-2.86102e-06H10.2V3.264H7.08V32.736H17.16V27.12H20.424V36H0.12V32.736ZM44.1034 32.736V36H27.3994C25.7674 36 24.6634 35.68 24.0874 35.04C23.5754 34.464 23.3194 33.376 23.3194 31.776V30C23.3194 28.848 23.4634 28.064 23.7514 27.648C24.1674 27.04 25.1114 26.288 26.5834 25.392L37.1434 18.816V15.264H27.7354V18.048H24.6634V12H36.6634C38.2954 12 39.4314 12.352 40.0714 13.056C40.7434 13.76 41.0794 14.784 41.0794 16.128V32.736H44.1034ZM37.1434 22.656L27.1594 28.896V32.736H37.1434V22.656ZM76.5113 11.52C79.0073 11.52 80.2553 12.752 80.2553 15.216V32.736H83.3273V36H74.0633V32.736H76.3673V14.88L67.5833 20.352V32.736H69.9353V36H61.3433V32.736H63.6473L63.6953 32.544V14.832L54.8633 20.352V32.736H57.2153V36H47.9513V32.736H50.9753V15.216H47.9513V12H54.8633V16.56L62.1113 12C62.6233 11.68 63.1993 11.52 63.8393 11.52C66.3353 11.52 67.5833 12.752 67.5833 15.216V16.512L74.7833 12C75.2953 11.68 75.8713 11.52 76.5113 11.52ZM102.306 12.192C103.01 11.744 103.826 11.52 104.754 11.52C105.714 11.52 106.514 11.872 107.154 12.576C107.826 13.28 108.162 14.304 108.162 15.648V31.776C108.162 33.088 107.954 34.016 107.538 34.56C106.77 35.52 105.602 36 104.034 36H87.1856V32.736H90.2096V3.264H87.1856V-2.86102e-06H94.1456V17.328L102.306 12.192ZM104.322 14.784L94.1456 21.168V32.736H104.322V14.784ZM112.978 16.704C112.978 13.536 114.626 11.952 117.922 11.952H126.034C127.602 11.952 128.738 12.256 129.442 12.864C130.146 13.472 130.498 14.592 130.498 16.224V20.688L116.818 29.328V32.736H126.706V29.952H130.498V32.496C130.498 33.456 130.194 34.288 129.586 34.992C129.01 35.664 128.034 36 126.658 36H116.818C115.442 36 114.45 35.664 113.842 34.992C113.266 34.288 112.978 33.456 112.978 32.496V16.704ZM116.818 25.44L126.658 19.248V15.264H116.818V25.44ZM149.355 12C151.851 12 153.099 13.232 153.099 15.696V19.968H149.211V15.312L141.723 20.064V32.736H144.075V36H134.811V32.736H137.835V15.216H134.811V11.952H141.723V16.176L147.627 12.48C148.139 12.16 148.715 12 149.355 12Z" fill="white"/>
</svg>
